<?xml version="1.0" encoding="utf-8"?>
<!-- Svg Vector Icons : http://www.onlinewebfonts.com/icon -->
<!DOCTYPE svg PUBLIC "-//W3C//DTD SVG 1.1//EN" "http://www.w3.org/Graphics/SVG/1.1/DTD/svg11.dtd">
<svg version="1.1" xmlns="http://www.w3.org/2000/svg" xmlns:xlink="http://www.w3.org/1999/xlink" x="0px" y="0px" viewBox="0 0 1000 1000" enable-background="new 0 0 1000 1000" xml:space="preserve">
<metadata> Svg Vector Icons : http://www.onlinewebfonts.com/icon </metadata>
<g><g><path d="M816.5,693.9c-21.8-24.1-48.1-35.8-81.7-35.8H664l-46.5-44.8c-34.1,28-75.6,44.2-120.3,44.2c-42,0-81.7-14.6-114.2-39.7l-41.4,39.7H268c-37.5,0-66.6,12.9-89.5,39.2C111.9,774,123.1,939.1,128.1,990h745.5C877.5,938.5,884.2,769.5,816.5,693.9z"/><path d="M303.3,343.6c-13.4,11.2-22.4,29.1-22.4,49.8c0,30.8,20.1,56,45.9,60.4c5.6,46.5,24.6,87.3,53.2,117.5c6.2,6.2,12.3,12.3,19,17.4c8.4,6.7,17.4,12.3,26.9,17.3c21.3,11.2,44.8,17.3,70,17.3c25.2,0,48.7-6.2,70-17.3c9.5-5,18.5-10.6,26.9-17.3c6.7-5,12.9-11.2,19-17.4c28-30.2,47.6-70.5,52.6-117c0.6,0,1.1,0,1.7,0c29.7,0,53.2-27.4,53.2-61c0-20.7-9-38.6-22.4-49.8H303.3L303.3,343.6z"/><path d="M700.3,226C682.9,168.4,637,109.6,578.8,79.4v131.5v17.9c0,1.1,0,1.7,0,2.2c-0.6,6.2-1.7,11.8-4.5,17.3c-7.3,14-21.8,24.1-38.6,24.1h-9h-61.6c-15.7,0-29.7-8.4-36.9-20.7c-3.4-5-5-10.6-6.2-16.8c-0.6-2.2-0.6-3.9-0.6-6.2v-15.7V78.8c-58.2,30.8-104.1,89.5-121.5,147.2l-3.9,12.3h-31.9v70h35.3h49.3h20.7h269.8h20.1h76.3V305v-66.6h-31.5L700.3,226z"/><path d="M465,255.1h70c10.1,0,18.5-5.6,22.9-14c2.2-3.9,3.4-7.8,3.4-12.3v-5v-20.7V71V52v-7.3c0-4.5-1.1-8.4-2.2-12.3C554,19.5,541.1,10,526.6,10H465c-13.4,0-24.6,10.1-25.7,22.9c0,1.1-0.6,2.2-0.6,3.4V52v19v134.3v21.3v2.2c0,5.6,1.7,10.6,4.5,15.1C448.2,250.7,456.1,255.1,465,255.1z"/></g><g></g><g></g><g></g><g></g><g></g><g></g><g></g><g></g><g></g><g></g><g></g><g></g><g></g><g></g><g></g></g>
</svg>