<svg width="140" height="58" viewBox="0 0 140 58" fill="none" xmlns="http://www.w3.org/2000/svg">
<rect width="140" height="58" rx="29" fill="white"/>
<path d="M12.832 21.752V36H10.0195V24.9941L6.64062 26.0684V23.8516L12.5293 21.752H12.832ZM26.9238 33.998C27.2689 33.998 27.5749 33.9329 27.8418 33.8027C28.1087 33.666 28.3171 33.4772 28.4668 33.2363C28.623 32.9889 28.7044 32.6992 28.7109 32.3672H31.3574C31.3509 33.1094 31.1523 33.7702 30.7617 34.3496C30.3711 34.9225 29.847 35.375 29.1895 35.707C28.5319 36.0326 27.7962 36.1953 26.9824 36.1953C26.1621 36.1953 25.446 36.0586 24.834 35.7852C24.2285 35.5117 23.724 35.1341 23.3203 34.6523C22.9167 34.1641 22.6139 33.5977 22.4121 32.9531C22.2103 32.3021 22.1094 31.6055 22.1094 30.8633V30.5801C22.1094 29.8314 22.2103 29.1348 22.4121 28.4902C22.6139 27.8392 22.9167 27.2728 23.3203 26.791C23.724 26.3027 24.2285 25.9219 24.834 25.6484C25.4395 25.375 26.1491 25.2383 26.9629 25.2383C27.8288 25.2383 28.5872 25.4043 29.2383 25.7363C29.8958 26.0684 30.4102 26.5436 30.7812 27.1621C31.1589 27.7741 31.3509 28.5 31.3574 29.3398H28.7109C28.7044 28.9883 28.6296 28.6693 28.4863 28.3828C28.3496 28.0964 28.1478 27.8685 27.8809 27.6992C27.6204 27.5234 27.2982 27.4355 26.9141 27.4355C26.5039 27.4355 26.1686 27.5234 25.9082 27.6992C25.6478 27.8685 25.446 28.1029 25.3027 28.4023C25.1595 28.6953 25.0586 29.0306 25 29.4082C24.9479 29.7793 24.9219 30.1699 24.9219 30.5801V30.8633C24.9219 31.2734 24.9479 31.6673 25 32.0449C25.0521 32.4225 25.1497 32.7578 25.293 33.0508C25.4427 33.3438 25.6478 33.5749 25.9082 33.7441C26.1686 33.9134 26.5072 33.998 26.9238 33.998ZM38.3691 25.4336V36H35.5469V25.4336H38.3691ZM41.7676 25.4336V27.6113H32.1973V25.4336H41.7676ZM48.4668 31.5859H45.1562L45.1367 29.7402H47.8711C48.2357 29.7402 48.5319 29.7044 48.7598 29.6328C48.9876 29.5547 49.1536 29.4408 49.2578 29.291C49.3685 29.1348 49.4238 28.946 49.4238 28.7246C49.4238 28.5293 49.388 28.3633 49.3164 28.2266C49.2513 28.0833 49.1504 27.9661 49.0137 27.875C48.877 27.7839 48.7044 27.7188 48.4961 27.6797C48.2943 27.6341 48.0566 27.6113 47.7832 27.6113H46.2012V36H43.3887V25.4336H47.7832C48.4733 25.4336 49.0918 25.4954 49.6387 25.6191C50.1855 25.7363 50.651 25.9154 51.0352 26.1562C51.4258 26.3971 51.722 26.7031 51.9238 27.0742C52.1322 27.4388 52.2363 27.8717 52.2363 28.373C52.2363 28.6986 52.1615 29.0046 52.0117 29.291C51.8685 29.5775 51.6536 29.8314 51.3672 30.0527C51.0807 30.2741 50.7259 30.4564 50.3027 30.5996C49.8861 30.7363 49.4043 30.821 48.8574 30.8535L48.4668 31.5859ZM48.4668 36H44.4629L45.4297 33.8223H48.4668C48.8118 33.8223 49.0951 33.7799 49.3164 33.6953C49.5378 33.6107 49.7005 33.487 49.8047 33.3242C49.9154 33.1549 49.9707 32.9531 49.9707 32.7188C49.9707 32.4909 49.9219 32.2923 49.8242 32.123C49.7266 31.9538 49.5671 31.8236 49.3457 31.7324C49.1309 31.6348 48.8379 31.5859 48.4668 31.5859H45.8398L45.8594 29.7402H48.8477L49.5312 30.4824C50.2734 30.528 50.8854 30.668 51.3672 30.9023C51.849 31.1367 52.2038 31.4362 52.4316 31.8008C52.666 32.1589 52.7832 32.5527 52.7832 32.9824C52.7832 33.4837 52.6888 33.9232 52.5 34.3008C52.3112 34.6784 52.0312 34.9941 51.6602 35.248C51.2956 35.4954 50.8464 35.6842 50.3125 35.8145C49.7786 35.9382 49.1634 36 48.4668 36ZM54.0625 30.8242V30.6191C54.0625 29.8444 54.1732 29.1315 54.3945 28.4805C54.6159 27.8229 54.9382 27.2533 55.3613 26.7715C55.7845 26.2897 56.3053 25.9154 56.9238 25.6484C57.5423 25.375 58.252 25.2383 59.0527 25.2383C59.8535 25.2383 60.5664 25.375 61.1914 25.6484C61.8164 25.9154 62.3405 26.2897 62.7637 26.7715C63.1934 27.2533 63.5189 27.8229 63.7402 28.4805C63.9616 29.1315 64.0723 29.8444 64.0723 30.6191V30.8242C64.0723 31.5924 63.9616 32.3053 63.7402 32.9629C63.5189 33.6139 63.1934 34.1836 62.7637 34.6719C62.3405 35.1536 61.8197 35.528 61.2012 35.7949C60.5827 36.0618 59.873 36.1953 59.0723 36.1953C58.2715 36.1953 57.5586 36.0618 56.9336 35.7949C56.3151 35.528 55.791 35.1536 55.3613 34.6719C54.9382 34.1836 54.6159 33.6139 54.3945 32.9629C54.1732 32.3053 54.0625 31.5924 54.0625 30.8242ZM56.875 30.6191V30.8242C56.875 31.2669 56.9141 31.6803 56.9922 32.0645C57.0703 32.4486 57.194 32.7871 57.3633 33.0801C57.5391 33.3665 57.7669 33.5911 58.0469 33.7539C58.3268 33.9167 58.6686 33.998 59.0723 33.998C59.4629 33.998 59.7982 33.9167 60.0781 33.7539C60.3581 33.5911 60.5827 33.3665 60.752 33.0801C60.9212 32.7871 61.0449 32.4486 61.123 32.0645C61.2077 31.6803 61.25 31.2669 61.25 30.8242V30.6191C61.25 30.1895 61.2077 29.7858 61.123 29.4082C61.0449 29.0241 60.918 28.6855 60.7422 28.3926C60.5729 28.0931 60.3483 27.8587 60.0684 27.6895C59.7884 27.5202 59.4499 27.4355 59.0527 27.4355C58.6556 27.4355 58.3171 27.5202 58.0371 27.6895C57.7637 27.8587 57.5391 28.0931 57.3633 28.3926C57.194 28.6855 57.0703 29.0241 56.9922 29.4082C56.9141 29.7858 56.875 30.1895 56.875 30.6191ZM68.6133 27.4648V40.0625H65.8008V25.4336H68.4082L68.6133 27.4648ZM75.3027 30.5996V30.8047C75.3027 31.5729 75.2116 32.2858 75.0293 32.9434C74.8535 33.6009 74.5931 34.1738 74.248 34.6621C73.903 35.1439 73.4733 35.5215 72.959 35.7949C72.4512 36.0618 71.8652 36.1953 71.2012 36.1953C70.5566 36.1953 69.9967 36.0651 69.5215 35.8047C69.0462 35.5443 68.6458 35.1797 68.3203 34.7109C68.0013 34.2357 67.7441 33.6855 67.5488 33.0605C67.3535 32.4355 67.2038 31.765 67.0996 31.0488V30.5117C67.2038 29.7435 67.3535 29.0404 67.5488 28.4023C67.7441 27.7578 68.0013 27.2012 68.3203 26.7324C68.6458 26.2572 69.043 25.8893 69.5117 25.6289C69.987 25.3685 70.5436 25.2383 71.1816 25.2383C71.8522 25.2383 72.4414 25.3652 72.9492 25.6191C73.4635 25.873 73.8932 26.2376 74.2383 26.7129C74.5898 27.1882 74.8535 27.7546 75.0293 28.4121C75.2116 29.0697 75.3027 29.7988 75.3027 30.5996ZM72.4805 30.8047V30.5996C72.4805 30.1504 72.4414 29.737 72.3633 29.3594C72.2917 28.9753 72.1745 28.64 72.0117 28.3535C71.8555 28.0671 71.6471 27.8457 71.3867 27.6895C71.1328 27.5267 70.8236 27.4453 70.459 27.4453C70.0749 27.4453 69.7461 27.5072 69.4727 27.6309C69.2057 27.7546 68.9876 27.9336 68.8184 28.168C68.6491 28.4023 68.5221 28.6823 68.4375 29.0078C68.3529 29.3333 68.3008 29.7012 68.2812 30.1113V31.4688C68.3138 31.9505 68.4049 32.3835 68.5547 32.7676C68.7044 33.1452 68.9355 33.4447 69.248 33.666C69.5605 33.8874 69.9707 33.998 70.4785 33.998C70.8496 33.998 71.1621 33.9167 71.416 33.7539C71.6699 33.5846 71.875 33.3535 72.0312 33.0605C72.194 32.7676 72.3079 32.429 72.373 32.0449C72.4447 31.6608 72.4805 31.2474 72.4805 30.8047ZM85.957 25.4336V36H83.1348V25.4336H85.957ZM84.6289 29.9551V32.1523C84.4141 32.263 84.1374 32.3672 83.7988 32.4648C83.4603 32.5625 83.1022 32.6406 82.7246 32.6992C82.3535 32.7513 82.0085 32.7773 81.6895 32.7773C80.6738 32.7773 79.8014 32.6374 79.0723 32.3574C78.3496 32.0775 77.793 31.638 77.4023 31.0391C77.0117 30.4401 76.8164 29.6719 76.8164 28.7344V25.4238H79.6289V28.7344C79.6289 29.2096 79.7005 29.584 79.8438 29.8574C79.987 30.1243 80.2083 30.3132 80.5078 30.4238C80.8138 30.528 81.2077 30.5801 81.6895 30.5801C82.028 30.5801 82.3568 30.554 82.6758 30.502C82.9948 30.4499 83.3138 30.3783 83.6328 30.2871C83.9518 30.196 84.2839 30.0853 84.6289 29.9551ZM93.8281 33.6172V28.9102C93.8281 28.5716 93.7728 28.2819 93.6621 28.041C93.5514 27.7936 93.3789 27.6016 93.1445 27.4648C92.9167 27.3281 92.6204 27.2598 92.2559 27.2598C91.9434 27.2598 91.6732 27.3151 91.4453 27.4258C91.2174 27.5299 91.0417 27.6829 90.918 27.8848C90.7943 28.0801 90.7324 28.3112 90.7324 28.5781H87.9199C87.9199 28.1289 88.0241 27.7025 88.2324 27.2988C88.4408 26.8952 88.7435 26.5404 89.1406 26.2344C89.5378 25.9219 90.0098 25.6777 90.5566 25.502C91.11 25.3262 91.7285 25.2383 92.4121 25.2383C93.2324 25.2383 93.9616 25.375 94.5996 25.6484C95.2376 25.9219 95.7389 26.332 96.1035 26.8789C96.4746 27.4258 96.6602 28.1094 96.6602 28.9297V33.4512C96.6602 34.0306 96.696 34.5059 96.7676 34.877C96.8392 35.2415 96.9434 35.5605 97.0801 35.834V36H94.2383C94.1016 35.7135 93.9974 35.3555 93.9258 34.9258C93.8607 34.4896 93.8281 34.0534 93.8281 33.6172ZM94.1992 29.5645L94.2188 31.1562H92.6465C92.2754 31.1562 91.9531 31.1986 91.6797 31.2832C91.4062 31.3678 91.1816 31.4883 91.0059 31.6445C90.8301 31.7943 90.6999 31.9701 90.6152 32.1719C90.5371 32.3737 90.498 32.5951 90.498 32.8359C90.498 33.0768 90.5534 33.2949 90.6641 33.4902C90.7747 33.679 90.9342 33.8288 91.1426 33.9395C91.3509 34.0436 91.5951 34.0957 91.875 34.0957C92.2982 34.0957 92.666 34.0111 92.9785 33.8418C93.291 33.6725 93.5319 33.4642 93.7012 33.2168C93.877 32.9694 93.9681 32.735 93.9746 32.5137L94.7168 33.7051C94.6126 33.972 94.4694 34.2487 94.2871 34.5352C94.1113 34.8216 93.8867 35.0918 93.6133 35.3457C93.3398 35.5931 93.0111 35.7982 92.627 35.9609C92.2428 36.1172 91.7871 36.1953 91.2598 36.1953C90.5892 36.1953 89.9805 36.0618 89.4336 35.7949C88.8932 35.5215 88.4635 35.1471 88.1445 34.6719C87.832 34.1901 87.6758 33.6432 87.6758 33.0312C87.6758 32.4779 87.7799 31.9863 87.9883 31.5566C88.1966 31.127 88.5026 30.7656 88.9062 30.4727C89.3164 30.1732 89.8275 29.9486 90.4395 29.7988C91.0514 29.6426 91.7611 29.5645 92.5684 29.5645H94.1992ZM104.053 25.4336V36H101.23V25.4336H104.053ZM107.451 25.4336V27.6113H97.8809V25.4336H107.451ZM110.83 28.5684H113.896C114.86 28.5684 115.68 28.7279 116.357 29.0469C117.041 29.3594 117.562 29.7956 117.92 30.3555C118.285 30.9154 118.467 31.5632 118.467 32.2988C118.467 32.8327 118.363 33.3275 118.154 33.7832C117.952 34.2324 117.656 34.623 117.266 34.9551C116.875 35.2871 116.396 35.5443 115.83 35.7266C115.264 35.9089 114.619 36 113.896 36H109.072V25.4336H111.895V33.8125H113.896C114.32 33.8125 114.658 33.7441 114.912 33.6074C115.173 33.4642 115.361 33.2786 115.479 33.0508C115.602 32.8229 115.664 32.5755 115.664 32.3086C115.664 32.0286 115.602 31.7747 115.479 31.5469C115.361 31.3125 115.173 31.1237 114.912 30.9805C114.658 30.8372 114.32 30.7656 113.896 30.7656H110.83V28.5684ZM122.979 25.4336V36H120.166V25.4336H122.979ZM130.312 36.1953C129.492 36.1953 128.757 36.0651 128.105 35.8047C127.454 35.5378 126.901 35.1699 126.445 34.7012C125.996 34.2324 125.651 33.6888 125.41 33.0703C125.169 32.4453 125.049 31.7812 125.049 31.0781V30.6875C125.049 29.8867 125.163 29.1543 125.391 28.4902C125.618 27.8262 125.944 27.25 126.367 26.7617C126.797 26.2734 127.318 25.8991 127.93 25.6387C128.542 25.3717 129.232 25.2383 130 25.2383C130.749 25.2383 131.413 25.362 131.992 25.6094C132.572 25.8568 133.057 26.2083 133.447 26.6641C133.844 27.1198 134.144 27.6667 134.346 28.3047C134.548 28.9362 134.648 29.6393 134.648 30.4141V31.5859H126.25V29.7109H131.885V29.4961C131.885 29.1055 131.813 28.7572 131.67 28.4512C131.533 28.1387 131.325 27.8913 131.045 27.709C130.765 27.5267 130.407 27.4355 129.971 27.4355C129.6 27.4355 129.281 27.5169 129.014 27.6797C128.747 27.8424 128.529 28.0703 128.359 28.3633C128.197 28.6562 128.073 29.0013 127.988 29.3984C127.91 29.7891 127.871 30.2188 127.871 30.6875V31.0781C127.871 31.5013 127.93 31.8919 128.047 32.25C128.171 32.6081 128.343 32.9173 128.564 33.1777C128.792 33.4382 129.066 33.64 129.385 33.7832C129.71 33.9264 130.078 33.998 130.488 33.998C130.996 33.998 131.468 33.9004 131.904 33.7051C132.347 33.5033 132.728 33.2005 133.047 32.7969L134.414 34.2812C134.193 34.6003 133.89 34.9062 133.506 35.1992C133.128 35.4922 132.673 35.7331 132.139 35.9219C131.605 36.1042 130.996 36.1953 130.312 36.1953Z" fill="#333333"/>
</svg>
