<svg width="140" height="58" viewBox="0 0 140 58" fill="none" xmlns="http://www.w3.org/2000/svg">
<rect width="140" height="58" rx="29" fill="white"/>
<path d="M27.5664 21.7812V24.0762H21.1699V36H18.25V21.7812H27.5664ZM20.1641 26.9668H23.4844C24.6042 26.9668 25.5677 27.1523 26.375 27.5234C27.1823 27.8945 27.804 28.4154 28.2402 29.0859C28.6764 29.7565 28.8945 30.5378 28.8945 31.4297C28.8945 32.1068 28.7708 32.7253 28.5234 33.2852C28.276 33.8385 27.9147 34.3203 27.4395 34.7305C26.9707 35.1341 26.4043 35.4466 25.7402 35.668C25.0762 35.8893 24.3242 36 23.4844 36H18.25V21.7812H21.1895V33.7148H23.4844C24.0443 33.7148 24.5065 33.6107 24.8711 33.4023C25.2357 33.194 25.5091 32.9173 25.6914 32.5723C25.8802 32.2207 25.9746 31.8333 25.9746 31.4102C25.9746 31.0065 25.8802 30.6419 25.6914 30.3164C25.5091 29.9844 25.2357 29.724 24.8711 29.5352C24.5065 29.3464 24.0443 29.252 23.4844 29.252H20.1641V26.9668ZM36.3457 30.9316H32.7227V28.6465H36.3457C36.9056 28.6465 37.3613 28.5553 37.7129 28.373C38.0645 28.1842 38.3216 27.9238 38.4844 27.5918C38.6471 27.2598 38.7285 26.8854 38.7285 26.4688C38.7285 26.0456 38.6471 25.6517 38.4844 25.2871C38.3216 24.9225 38.0645 24.6296 37.7129 24.4082C37.3613 24.1868 36.9056 24.0762 36.3457 24.0762H33.7383V36H30.8086V21.7812H36.3457C37.459 21.7812 38.4128 21.9831 39.207 22.3867C40.0078 22.7839 40.6198 23.334 41.043 24.0371C41.4661 24.7402 41.6777 25.5443 41.6777 26.4492C41.6777 27.3672 41.4661 28.1615 41.043 28.832C40.6198 29.5026 40.0078 30.0202 39.207 30.3848C38.4128 30.7493 37.459 30.9316 36.3457 30.9316ZM53.2402 33.7148V36H45.6719V33.7148H53.2402ZM46.6289 21.7812V36H43.6992V21.7812H46.6289ZM52.2539 27.5723V29.7988H45.6719V27.5723H52.2539ZM53.2305 21.7812V24.0762H45.6719V21.7812H53.2305ZM59.4707 30.1406L54.0508 21.7812H57.6934L60.877 27.543H63.3477L62.9668 30.1406H59.4707ZM60.8574 29.6914L57.4883 36H53.8359L58.4941 27.9922L60.8574 29.6914ZM65.2617 21.7812V36H62.3516V21.7812H65.2617ZM73.4453 21.7812L68.1035 30.1406H64.627L64.2461 27.543H66.6973L69.8027 21.7812H73.4453ZM70.0078 36L66.7168 29.6914L69.0898 27.9922L73.6602 36H70.0078ZM84.4316 27.5723V29.8574H77.0098V27.5723H84.4316ZM77.8789 21.7812V36H74.9492V21.7812H77.8789ZM86.5215 21.7812V36H83.6016V21.7812H86.5215ZM98.6113 33.7148V36H91.043V33.7148H98.6113ZM92 21.7812V36H89.0703V21.7812H92ZM97.625 27.5723V29.7988H91.043V27.5723H97.625ZM98.6016 21.7812V24.0762H91.043V21.7812H98.6016ZM105.887 29.7598H102.234L102.215 27.748H105.281C105.822 27.748 106.264 27.6797 106.609 27.543C106.954 27.3997 107.212 27.1947 107.381 26.9277C107.557 26.6543 107.645 26.3223 107.645 25.9316C107.645 25.4889 107.56 25.1309 107.391 24.8574C107.228 24.584 106.971 24.3854 106.619 24.2617C106.274 24.138 105.828 24.0762 105.281 24.0762H103.25V36H100.32V21.7812H105.281C106.108 21.7812 106.847 21.8594 107.498 22.0156C108.156 22.1719 108.712 22.4095 109.168 22.7285C109.624 23.0475 109.972 23.4512 110.213 23.9395C110.454 24.4212 110.574 24.9941 110.574 25.6582C110.574 26.2441 110.441 26.7845 110.174 27.2793C109.913 27.7741 109.5 28.1777 108.934 28.4902C108.374 28.8027 107.641 28.9753 106.736 29.0078L105.887 29.7598ZM105.76 36H101.434L102.576 33.7148H105.76C106.274 33.7148 106.694 33.6335 107.02 33.4707C107.345 33.3014 107.586 33.0736 107.742 32.7871C107.898 32.5007 107.977 32.1719 107.977 31.8008C107.977 31.3841 107.905 31.0228 107.762 30.7168C107.625 30.4108 107.404 30.1764 107.098 30.0137C106.792 29.8444 106.388 29.7598 105.887 29.7598H103.064L103.084 27.748H106.6L107.273 28.5391C108.139 28.526 108.836 28.679 109.363 28.998C109.897 29.3105 110.285 29.7174 110.525 30.2188C110.773 30.7201 110.896 31.2572 110.896 31.8301C110.896 32.7415 110.698 33.5098 110.301 34.1348C109.904 34.7533 109.321 35.2188 108.553 35.5312C107.791 35.8438 106.86 36 105.76 36ZM116.033 21.7812V36H113.104V21.7812H116.033ZM124.412 21.7812L118.963 30.1309H115.379L115.008 27.5234H117.4L120.857 21.7812H124.412ZM121.395 36L117.41 29.6426L119.441 27.5527L124.871 36H121.395ZM131.805 24.2129L127.938 36H124.822L130.105 21.7812H132.088L131.805 24.2129ZM135.018 36L131.141 24.2129L130.828 21.7812H132.83L138.143 36H135.018ZM134.842 30.707V33.002H127.332V30.707H134.842Z" fill="#333333"/>
</svg>
