<svg width="89" height="63" viewBox="0 0 89 63" fill="none" xmlns="http://www.w3.org/2000/svg">
<path d="M1.14893 1.11133L7.59893 5.89782" stroke="#CACACA"/>
<path d="M1.14893 61.6661L7.59893 56.8796" stroke="#CACACA"/>
<path d="M44.3516 1.11133L37.9016 5.89782" stroke="#CACACA"/>
<path d="M44.3516 61.6661L37.9016 56.8796" stroke="#CACACA"/>
<rect x="6.60059" y="5.28467" width="32.3" height="52.208" stroke="#505050"/>
<rect x="7.80127" y="6.17505" width="29.9" height="50.427" fill="url(#paint0_linear_149_35)" stroke="#5F5F5F"/>
<rect x="1.5" y="1.5" width="42.5" height="59.7774" stroke="#1A1A1A"/>
<path d="M44.6489 1.33386L51.0989 6.12036" stroke="#CACACA"/>
<path d="M44.6489 61.8887L51.0989 57.1022" stroke="#CACACA"/>
<path d="M87.8516 1.33386L81.4016 6.12036" stroke="#CACACA"/>
<path d="M87.8516 61.8887L81.4016 57.1022" stroke="#CACACA"/>
<rect x="46.2012" y="30.219" width="2" height="3.0073" rx="0.5" stroke="#4F4F4F"/>
<path d="M46.8018 37.279V31.1096H47.6018V37.279C47.6018 37.4999 47.4227 37.679 47.2018 37.679C46.9808 37.679 46.8018 37.4999 46.8018 37.279Z" fill="white" stroke="#4F4F4F"/>
<rect x="50.1006" y="5.50732" width="32.3" height="52.208" stroke="#505050"/>
<rect x="51.3013" y="6.39795" width="29.9" height="50.427" fill="url(#paint1_linear_149_35)" stroke="#5F5F5F"/>
<rect x="45" y="1.72266" width="42.5" height="59.7774" stroke="#1A1A1A"/>
<path d="M81.5516 6.00899L51.1016 31.6112L81.5516 57.2134" stroke="#5F5F5F"/>
<path d="M81.5497 57.2135L66.2497 6.12048L50.9497 57.2135" stroke="#5F5F5F"/>
<defs>
<linearGradient id="paint0_linear_149_35" x1="22.7513" y1="5.67505" x2="22.7513" y2="57.1021" gradientUnits="userSpaceOnUse">
<stop stop-color="#BADFDB"/>
<stop offset="1" stop-color="#87CED7"/>
</linearGradient>
<linearGradient id="paint1_linear_149_35" x1="66.2513" y1="5.89795" x2="66.2513" y2="57.325" gradientUnits="userSpaceOnUse">
<stop stop-color="#BADFDB"/>
<stop offset="1" stop-color="#87CED7"/>
</linearGradient>
</defs>
</svg>
