<svg width="121" height="66" viewBox="0 0 121 66" fill="none" xmlns="http://www.w3.org/2000/svg">
<path d="M40.8623 1.11719L34.9313 6.15748" stroke="#CACACA"/>
<path d="M40.8623 64.8828L34.9313 59.8425" stroke="#CACACA"/>
<path d="M1.1377 1.11719L7.06873 6.15748" stroke="#CACACA"/>
<path d="M1.1377 64.8828L7.06873 59.8425" stroke="#CACACA"/>
<rect x="-0.5" y="0.5" width="29.6207" height="55.0293" transform="matrix(-1 0 0 1 35.3101 4.98535)" stroke="#505050"/>
<rect x="-0.5" y="0.5" width="27.4138" height="53.1539" transform="matrix(-1 0 0 1 34.207 5.92297)" fill="url(#paint0_linear_150_2549)" stroke="#5F5F5F"/>
<rect x="-0.5" y="0.5" width="39" height="63" transform="matrix(-1 0 0 1 40 1)" stroke="#1A1A1A"/>
<rect x="-0.5" y="0.5" width="1.75862" height="3.21978" rx="0.5" transform="matrix(-1 0 0 1 38.8965 31.0073)" stroke="#4F4F4F"/>
<path d="M38.8447 39.0882V32.4451H38.1896V39.0882C38.1896 39.2691 38.3362 39.4158 38.5171 39.4158C38.6981 39.4158 38.8447 39.2691 38.8447 39.0882Z" fill="white" stroke="#4F4F4F"/>
<path d="M6.93115 6.0403L34.9312 33L6.93115 59.9597" stroke="#5F5F5F"/>
<path d="M6.93092 59.9599L20.9999 6.15771L35.0688 59.9599" stroke="#5F5F5F"/>
<path d="M40.1387 1.11719L46.0971 6.15748" stroke="#CACACA"/>
<path d="M40.1387 64.8828L46.0971 59.8425" stroke="#CACACA"/>
<path d="M80.0464 1.11719L74.088 6.15748" stroke="#CACACA"/>
<path d="M80.0464 64.8828L74.088 59.8425" stroke="#CACACA"/>
<rect x="45.2114" y="5.48535" width="29.7621" height="55.0293" stroke="#505050"/>
<rect x="46.3198" y="6.4231" width="27.545" height="53.1538" fill="url(#paint1_linear_150_2549)" stroke="#5F5F5F"/>
<rect x="40.5" y="1.5" width="39.1848" height="63" stroke="#1A1A1A"/>
<path d="M80.0464 1.11719L86.0048 6.15748" stroke="#CACACA"/>
<path d="M80.0464 64.8828L86.0048 59.8425" stroke="#CACACA"/>
<path d="M119.954 1.11719L113.995 6.15748" stroke="#CACACA"/>
<path d="M119.954 64.8828L113.995 59.8425" stroke="#CACACA"/>
<rect x="85.1191" y="5.48535" width="29.7621" height="55.0293" stroke="#505050"/>
<rect x="86.2275" y="6.4231" width="27.545" height="53.1538" fill="url(#paint2_linear_150_2549)" stroke="#5F5F5F"/>
<rect x="80.4077" y="1.5" width="39.1848" height="63" stroke="#1A1A1A"/>
<rect x="81.5161" y="31.5073" width="1.77136" height="3.21978" rx="0.5" stroke="#4F4F4F"/>
<path d="M82.0703 39.0844V32.4451H82.7331V39.0844C82.7331 39.2674 82.5848 39.4158 82.4017 39.4158C82.2187 39.4158 82.0703 39.2674 82.0703 39.0844Z" fill="white" stroke="#4F4F4F"/>
<path d="M114.134 6.0403L86.0044 33L114.134 59.9597" stroke="#5F5F5F"/>
<path d="M114.134 59.9597L100 6.15747L85.8662 59.9597" stroke="#5F5F5F"/>
<defs>
<linearGradient id="paint0_linear_150_2549" x1="14.2069" y1="0" x2="14.2069" y2="54.1539" gradientUnits="userSpaceOnUse">
<stop stop-color="#BADFDB"/>
<stop offset="1" stop-color="#87CED7"/>
</linearGradient>
<linearGradient id="paint1_linear_150_2549" x1="60.0923" y1="5.9231" x2="60.0923" y2="60.0769" gradientUnits="userSpaceOnUse">
<stop stop-color="#BADFDB"/>
<stop offset="1" stop-color="#87CED7"/>
</linearGradient>
<linearGradient id="paint2_linear_150_2549" x1="100" y1="5.9231" x2="100" y2="60.0769" gradientUnits="userSpaceOnUse">
<stop stop-color="#BADFDB"/>
<stop offset="1" stop-color="#87CED7"/>
</linearGradient>
</defs>
</svg>
