<svg width="122" height="66" viewBox="0 0 122 66" fill="none" xmlns="http://www.w3.org/2000/svg">
<path d="M41.0464 1.08032L49.3605 6.70846" stroke="#CACACA"/>
<path d="M80.9536 1.08032L72.6395 6.70846" stroke="#CACACA"/>
<path d="M80.8154 64.8391L72.5013 59.211" stroke="#CACACA"/>
<path d="M41.1846 64.8391L49.4987 59.211" stroke="#CACACA"/>
<rect x="48.6133" y="6.48499" width="24.7737" height="35.1809" stroke="#505050"/>
<rect x="48.6133" y="44.5955" width="24.7737" height="14.9196" stroke="#505050"/>
<rect x="-0.5" y="0.5" width="32.5335" height="58.4975" transform="matrix(-1 0 0 1 76.7666 3.25122)" stroke="#505050"/>
<rect x="49.7217" y="7.12817" width="22.5566" height="33.8945" fill="url(#paint0_linear_149_2466)" stroke="#5F5F5F"/>
<rect x="49.7217" y="45.2388" width="22.5566" height="13.6332" stroke="#5F5F5F"/>
<rect x="41.4077" y="1.5" width="39.1848" height="63" stroke="#1A1A1A"/>
<path d="M45.9263 32.0527H46.6976C46.9738 32.0527 47.1976 32.2766 47.1976 32.5527V33.4472C47.1976 33.7233 46.9738 33.9472 46.6976 33.9472H45.9263C45.6501 33.9472 45.4263 33.7233 45.4263 33.4472V32.5527C45.4263 32.2766 45.6501 32.0527 45.9263 32.0527Z" stroke="#4F4F4F"/>
<path d="M45.9805 36.8319V32.6959H46.6433V36.8318C46.6433 37.0149 46.4949 37.1633 46.3119 37.1633C46.1288 37.1633 45.9805 37.0149 45.9805 36.8319Z" fill="white" stroke="#4F4F4F"/>
<path d="M72.5013 6.78895L49.499 33L72.5013 59.2111" stroke="#5F5F5F"/>
<rect width="0.277136" height="1.92965" transform="matrix(-1 0 0 1 73.8867 42.1659)" fill="#505050"/>
<rect width="0.277136" height="1.92965" transform="matrix(-1 0 0 1 48.3901 42.1659)" fill="#505050"/>
<rect x="-0.34642" y="0.34642" width="0.692841" height="1.55842" transform="matrix(-1 0 0 1 78.1826 4.85925)" stroke="#505050" stroke-width="0.692841"/>
<path d="M78.0018 4.52004H78.3635C78.3362 4.44667 78.2655 4.39441 78.1826 4.39441C78.0998 4.39441 78.0291 4.44667 78.0018 4.52004Z" stroke="#505050"/>
<path d="M78.0018 7.44969H78.3635C78.3362 7.52305 78.2655 7.57532 78.1826 7.57532C78.0998 7.57532 78.0291 7.52305 78.0018 7.44969Z" stroke="#505050"/>
<rect x="78.5291" y="60.7943" width="0.692841" height="1.55842" transform="rotate(-180 78.5291 60.7943)" stroke="#505050" stroke-width="0.692841"/>
<path d="M78.0018 61.48H78.3635C78.3362 61.5533 78.2655 61.6056 78.1826 61.6056C78.0998 61.6056 78.0291 61.5533 78.0018 61.48Z" stroke="#505050"/>
<path d="M78.0018 58.5503H78.3635C78.3362 58.4769 78.2655 58.4247 78.1826 58.4247C78.0998 58.4247 78.0291 58.4769 78.0018 58.5503Z" stroke="#505050"/>
<path d="M1.13867 1.08032L7.0971 4.53761" stroke="#CACACA"/>
<path d="M1.13867 44.8191L7.0971 41.3618" stroke="#CACACA"/>
<path d="M41.0464 1.08032L35.088 4.53761" stroke="#CACACA"/>
<path d="M41.0464 44.8191L35.088 41.3618" stroke="#CACACA"/>
<rect x="6.21143" y="4.23376" width="29.7621" height="37.4322" stroke="#505050"/>
<rect x="7.31982" y="4.87695" width="27.545" height="36.1457" fill="url(#paint1_linear_149_2466)" stroke="#5F5F5F"/>
<rect x="1.5" y="1.5" width="39.1848" height="42.8995" stroke="#1A1A1A"/>
<path d="M80.9536 1.08032L86.912 4.53761" stroke="#CACACA"/>
<path d="M80.9536 44.8191L86.912 41.3618" stroke="#CACACA"/>
<path d="M120.861 1.08032L114.903 4.53761" stroke="#CACACA"/>
<path d="M120.861 44.8191L114.903 41.3618" stroke="#CACACA"/>
<rect x="86.0264" y="4.23376" width="29.7621" height="37.4322" stroke="#505050"/>
<rect x="87.1353" y="4.87695" width="27.545" height="36.1457" fill="url(#paint2_linear_149_2466)" stroke="#5F5F5F"/>
<rect x="81.3154" y="1.5" width="39.1848" height="42.8995" stroke="#1A1A1A"/>
<defs>
<linearGradient id="paint0_linear_149_2466" x1="61" y1="6.62817" x2="61" y2="41.5226" gradientUnits="userSpaceOnUse">
<stop stop-color="#BADFDB"/>
<stop offset="1" stop-color="#87CED7"/>
</linearGradient>
<linearGradient id="paint1_linear_149_2466" x1="21.0923" y1="4.37695" x2="21.0923" y2="41.5227" gradientUnits="userSpaceOnUse">
<stop stop-color="#BADFDB"/>
<stop offset="1" stop-color="#87CED7"/>
</linearGradient>
<linearGradient id="paint2_linear_149_2466" x1="100.908" y1="4.37695" x2="100.908" y2="41.5227" gradientUnits="userSpaceOnUse">
<stop stop-color="#BADFDB"/>
<stop offset="1" stop-color="#87CED7"/>
</linearGradient>
</defs>
</svg>
