<svg width="122" height="66" viewBox="0 0 122 66" fill="none" xmlns="http://www.w3.org/2000/svg">
<path d="M1.13867 1.11719L7.0971 6.15748" stroke="#CACACA"/>
<path d="M1.13867 64.8828L7.0971 59.8425" stroke="#CACACA"/>
<path d="M41.0464 1.11719L35.088 6.15748" stroke="#CACACA"/>
<path d="M41.0464 64.8828L35.088 59.8425" stroke="#CACACA"/>
<rect x="6.21143" y="5.48535" width="29.7621" height="55.0293" stroke="#505050"/>
<rect x="7.31982" y="6.4231" width="27.545" height="53.1538" fill="url(#paint0_linear_150_2502)" stroke="#5F5F5F"/>
<rect x="1.5" y="1.5" width="39.1848" height="63" stroke="#1A1A1A"/>
<path d="M80.9536 1.11719L86.912 6.15748" stroke="#CACACA"/>
<path d="M80.9536 64.8828L86.912 59.8425" stroke="#CACACA"/>
<path d="M120.861 1.11719L114.903 6.15748" stroke="#CACACA"/>
<path d="M120.861 64.8828L114.903 59.8425" stroke="#CACACA"/>
<rect x="86.0264" y="5.48535" width="29.7621" height="55.0293" stroke="#505050"/>
<rect x="87.1353" y="6.4231" width="27.545" height="53.1538" fill="url(#paint1_linear_150_2502)" stroke="#5F5F5F"/>
<rect x="81.3154" y="1.5" width="39.1848" height="63" stroke="#1A1A1A"/>
<path d="M41.0464 1.11719L47.0048 6.15748" stroke="#CACACA"/>
<path d="M41.0464 64.8828L47.0048 59.8425" stroke="#CACACA"/>
<path d="M80.9536 1.11719L74.9952 6.15748" stroke="#CACACA"/>
<path d="M80.9536 64.8828L74.9952 59.8425" stroke="#CACACA"/>
<rect x="46.1191" y="5.48535" width="29.7621" height="55.0293" stroke="#505050"/>
<rect x="47.2275" y="6.4231" width="27.545" height="53.1538" fill="url(#paint2_linear_150_2502)" stroke="#5F5F5F"/>
<rect x="41.4077" y="1.5" width="39.1848" height="63" stroke="#1A1A1A"/>
<rect x="42.5161" y="31.5073" width="1.77136" height="3.21978" rx="0.5" stroke="#4F4F4F"/>
<path d="M43.0703 39.0844V32.4451H43.7331V39.0844C43.7331 39.2674 43.5848 39.4158 43.4017 39.4158C43.2187 39.4158 43.0703 39.2674 43.0703 39.0844Z" fill="white" stroke="#4F4F4F"/>
<path d="M75.1337 6.0403L47.0044 33L75.1337 59.9597" stroke="#5F5F5F"/>
<path d="M75.1341 59.9597L61.0002 6.15747L46.8662 59.9597" stroke="#5F5F5F"/>
<defs>
<linearGradient id="paint0_linear_150_2502" x1="21.0923" y1="5.9231" x2="21.0923" y2="60.0769" gradientUnits="userSpaceOnUse">
<stop stop-color="#BADFDB"/>
<stop offset="1" stop-color="#87CED7"/>
</linearGradient>
<linearGradient id="paint1_linear_150_2502" x1="100.908" y1="5.9231" x2="100.908" y2="60.0769" gradientUnits="userSpaceOnUse">
<stop stop-color="#BADFDB"/>
<stop offset="1" stop-color="#87CED7"/>
</linearGradient>
<linearGradient id="paint2_linear_150_2502" x1="61.0001" y1="5.9231" x2="61.0001" y2="60.0769" gradientUnits="userSpaceOnUse">
<stop stop-color="#BADFDB"/>
<stop offset="1" stop-color="#87CED7"/>
</linearGradient>
</defs>
</svg>
