<svg width="140" height="58" viewBox="0 0 140 58" fill="none" xmlns="http://www.w3.org/2000/svg">
<rect width="140" height="58" rx="29" fill="white"/>
<path d="M20.6816 21.7812L23.3574 26.7422L26.0332 21.7812H29.3828L25.252 28.832L29.4902 36H26.1113L23.3574 30.9414L20.6035 36H17.2051L21.4531 28.832L17.3125 21.7812H20.6816ZM36.502 30.9316H32.8789V28.6465H36.502C37.0618 28.6465 37.5176 28.5553 37.8691 28.373C38.2207 28.1842 38.4779 27.9238 38.6406 27.5918C38.8034 27.2598 38.8848 26.8854 38.8848 26.4688C38.8848 26.0456 38.8034 25.6517 38.6406 25.2871C38.4779 24.9225 38.2207 24.6296 37.8691 24.4082C37.5176 24.1868 37.0618 24.0762 36.502 24.0762H33.8945V36H30.9648V21.7812H36.502C37.6152 21.7812 38.569 21.9831 39.3633 22.3867C40.1641 22.7839 40.776 23.334 41.1992 24.0371C41.6224 24.7402 41.834 25.5443 41.834 26.4492C41.834 27.3672 41.6224 28.1615 41.1992 28.832C40.776 29.5026 40.1641 30.0202 39.3633 30.3848C38.569 30.7493 37.6152 30.9316 36.502 30.9316ZM48.3184 30.8438L51.8145 21.7812H54.9688L50.0957 33.2461C49.9264 33.6367 49.7311 34.0111 49.5098 34.3691C49.2949 34.7207 49.0378 35.0365 48.7383 35.3164C48.4388 35.5898 48.0807 35.8079 47.6641 35.9707C47.2474 36.127 46.7493 36.2051 46.1699 36.2051C46.0267 36.2051 45.8509 36.2018 45.6426 36.1953C45.4342 36.1888 45.2682 36.179 45.1445 36.166L45.125 33.8809C45.2031 33.9004 45.3268 33.9134 45.4961 33.9199C45.6654 33.9199 45.7891 33.9199 45.8672 33.9199C46.2513 33.9199 46.554 33.8646 46.7754 33.7539C46.9967 33.6432 47.1725 33.487 47.3027 33.2852C47.4395 33.0768 47.5599 32.8327 47.6641 32.5527L48.3184 30.8438ZM46.0039 21.7812L49.2461 28.8223L50.1543 32.0547L47.9766 32.0938L42.8594 21.7812H46.0039ZM75.0273 33.8027L74.8418 39.418H72.2246V35.9902H71.0332V33.8027H75.0273ZM56.4629 21.7812H59.4023V33.7148H63.3672V21.7812H66.2969V33.7148H70.2227V21.7812H73.1426V36H56.4629V21.7812ZM86.4629 33.7148V36H78.8945V33.7148H86.4629ZM79.8516 21.7812V36H76.9219V21.7812H79.8516ZM85.4766 27.5723V29.7988H78.8945V27.5723H85.4766ZM86.4531 21.7812V24.0762H78.8945V21.7812H86.4531ZM78.1133 19.584C78.1133 19.2454 78.2402 18.959 78.4941 18.7246C78.7546 18.4837 79.0736 18.3633 79.4512 18.3633C79.8418 18.3633 80.1641 18.4837 80.418 18.7246C80.6719 18.959 80.7988 19.2454 80.7988 19.584C80.7988 19.9225 80.6719 20.209 80.418 20.4434C80.1641 20.6777 79.8418 20.7949 79.4512 20.7949C79.0736 20.7949 78.7546 20.6777 78.4941 20.4434C78.2402 20.209 78.1133 19.9225 78.1133 19.584ZM82.9082 19.5938C82.9082 19.2487 83.0352 18.959 83.2891 18.7246C83.543 18.4902 83.862 18.373 84.2461 18.373C84.6302 18.373 84.9492 18.4902 85.2031 18.7246C85.4635 18.959 85.5938 19.2487 85.5938 19.5938C85.5938 19.9323 85.4635 20.2188 85.2031 20.4531C84.9492 20.681 84.6302 20.7949 84.2461 20.7949C83.862 20.7949 83.543 20.681 83.2891 20.4531C83.0352 20.2188 82.9082 19.9323 82.9082 19.5938ZM93.7383 29.7598H90.0859L90.0664 27.748H93.1328C93.6732 27.748 94.1159 27.6797 94.4609 27.543C94.806 27.3997 95.0632 27.1947 95.2324 26.9277C95.4082 26.6543 95.4961 26.3223 95.4961 25.9316C95.4961 25.4889 95.4115 25.1309 95.2422 24.8574C95.0794 24.584 94.8223 24.3854 94.4707 24.2617C94.1257 24.138 93.6797 24.0762 93.1328 24.0762H91.1016V36H88.1719V21.7812H93.1328C93.9596 21.7812 94.6986 21.8594 95.3496 22.0156C96.0072 22.1719 96.5638 22.4095 97.0195 22.7285C97.4753 23.0475 97.8236 23.4512 98.0645 23.9395C98.3053 24.4212 98.4258 24.9941 98.4258 25.6582C98.4258 26.2441 98.2923 26.7845 98.0254 27.2793C97.765 27.7741 97.3516 28.1777 96.7852 28.4902C96.2253 28.8027 95.4928 28.9753 94.5879 29.0078L93.7383 29.7598ZM93.6113 36H89.2852L90.4277 33.7148H93.6113C94.1257 33.7148 94.5456 33.6335 94.8711 33.4707C95.1966 33.3014 95.4375 33.0736 95.5938 32.7871C95.75 32.5007 95.8281 32.1719 95.8281 31.8008C95.8281 31.3841 95.7565 31.0228 95.6133 30.7168C95.4766 30.4108 95.2552 30.1764 94.9492 30.0137C94.6432 29.8444 94.2396 29.7598 93.7383 29.7598H90.916L90.9355 27.748H94.4512L95.125 28.5391C95.9909 28.526 96.6875 28.679 97.2148 28.998C97.7487 29.3105 98.1361 29.7174 98.377 30.2188C98.6243 30.7201 98.748 31.2572 98.748 31.8301C98.748 32.7415 98.5495 33.5098 98.1523 34.1348C97.7552 34.7533 97.1725 35.2188 96.4043 35.5312C95.6426 35.8438 94.7116 36 93.6113 36ZM103.885 21.7812V36H100.955V21.7812H103.885ZM112.264 21.7812L106.814 30.1309H103.23L102.859 27.5234H105.252L108.709 21.7812H112.264ZM109.246 36L105.262 29.6426L107.293 27.5527L112.723 36H109.246ZM119.656 24.2129L115.789 36H112.674L117.957 21.7812H119.939L119.656 24.2129ZM122.869 36L118.992 24.2129L118.68 21.7812H120.682L125.994 36H122.869ZM122.693 30.707V33.002H115.184V30.707H122.693Z" fill="#333333"/>
</svg>
