<svg width="68" height="58" viewBox="0 0 68 58" fill="none" xmlns="http://www.w3.org/2000/svg">
<g clip-path="url(#clip0_2_110)">
<path d="M44.7864 1.38782H66.5041V37.2693H44.7864V1.38782Z" fill="#D9D9D9" stroke="black" stroke-width="1.8885"/>
<path d="M65.5595 2.33203H45.7302V36.3251H65.5595V2.33203Z" fill="url(#paint0_linear_2_110)"/>
<path d="M23.0688 1.38782H44.7866V56.1543H23.0688V1.38782Z" stroke="black" stroke-width="1.8885"/>
<path d="M23.6982 2.33203H44.157V55.2101H23.6982V2.33203Z" fill="#84E9FF"/>
<path d="M45.731 36.3251H22.1248V38.2136H45.731V36.3251Z" fill="black"/>
<path d="M23.0686 1.38782H1.35083V37.2693H23.0686V1.38782Z" fill="#D9D9D9" stroke="black" stroke-width="1.8885"/>
<path d="M2.29549 2.33203H22.1248V36.3251H2.29549V2.33203Z" fill="url(#paint1_linear_2_110)"/>
<path d="M44.7866 1.38782H23.0688V56.1543H44.7866V1.38782Z" stroke="black" stroke-width="1.8885"/>
<path d="M44.157 2.33203H23.6982V55.2101H44.157V2.33203Z" fill="url(#paint2_linear_2_110)"/>
<path d="M22.124 36.3251H45.7302V38.2136H22.124V36.3251Z" fill="black"/>
</g>
<defs>
<linearGradient id="paint0_linear_2_110" x1="55.6449" y1="2.33203" x2="55.6449" y2="36.3251" gradientUnits="userSpaceOnUse">
<stop stop-color="#BADFDC"/>
<stop offset="1" stop-color="#88CFD8"/>
</linearGradient>
<linearGradient id="paint1_linear_2_110" x1="12.2101" y1="2.33203" x2="12.2101" y2="36.3251" gradientUnits="userSpaceOnUse">
<stop stop-color="#BADFDC"/>
<stop offset="1" stop-color="#88CFD8"/>
</linearGradient>
<linearGradient id="paint2_linear_2_110" x1="33.9276" y1="2.33203" x2="33.9276" y2="55.2101" gradientUnits="userSpaceOnUse">
<stop stop-color="#BADFDC"/>
<stop offset="1" stop-color="#88CFD8"/>
</linearGradient>
<clipPath id="clip0_2_110">
<rect width="67.0418" height="56.655" fill="white" transform="translate(0.406616 0.443604)"/>
</clipPath>
</defs>
</svg>
